<svg xmlns="http://www.w3.org/2000/svg" version="1.1" xmlns:xlink="http://www.w3.org/1999/xlink" xmlns:svgjs="http://svgjs.dev/svgjs" width="1000" height="1000" viewBox="0 0 1000 1000"><rect width="1000" height="1000" fill="#ffffff"></rect><g transform="matrix(0.7,0,0,0.7,150,106.25)"><svg viewBox="0 0 320 360" data-background-color="#ffffff" preserveAspectRatio="xMidYMid meet" height="1125" width="1000" xmlns="http://www.w3.org/2000/svg" xmlns:xlink="http://www.w3.org/1999/xlink"><g id="tight-bounds" transform="matrix(1,0,0,1,0,0)"><svg viewBox="0 0 320 360" height="360" width="320"><g><svg></svg></g><g><svg viewBox="0 0 320 360" height="360" width="320"><g><path xmlns="http://www.w3.org/2000/svg" d="M219.58 41.008c0.707 0 6.365 2.829 9.547 3.89-1.061 0.354-3.536-0.707-6.365-1.768 0.707 0 2.122 0.354 3.536 1.06-0.707-0.707-6.011-2.475-6.718-3.182M166.895 30.047c1.061-0.354 13.436 1.414 19.094 1.768 0.354-0.354-0.707-0.354-2.122-0.707 1.768-0.354 5.304 0.707 7.779 1.06-7.425 0.354-15.558-1.768-22.629-1.06-2.475 0-0.707-0.707-2.122-1.061M156.641 30.047c6.365 0 11.315 0 2.121 0.707-1.061-0.354-2.475-0.354-2.121-0.707M256.707 59.395c0.707 0 3.536 3.182 4.95 4.243-0.354 0.354-3.182-2.475-4.596-3.536 0.354 0.354 0 0-0.354-0.707M249.635 54.798c-2.829-2.475-3.889-2.475-4.243-3.889 2.475 1.414 4.243 2.829 4.243 3.889M204.022 32.522c0.354-0.354 1.061 0.354 2.829 0.707-2.122-0.354-1.768 0-1.061 0.707-2.475-0.354-3.182-0.707-2.475-1.414 1.414 0.707 1.768 0.354 0.707 0M103.602 36.765c0-0.354 1.414-1.061 2.475-1.414-1.061 0.707-0.707 1.061 1.061 0.353 0 0.354-2.122 1.061-3.536 1.768 0.707-0.354 1.414-1.414 0-0.707M211.094 28.986c-1.061 0.354-4.95-1.768-8.84-2.475-2.122-0.707 8.486 1.768 8.84 2.475M2.475 203.66c2.122 8.84 0.707 8.486 0 0M2.829 150.621c0.354-1.414 0.707-5.304 1.06-4.95-1.061 8.486-2.829 12.376-3.182 18.74 1.061-5.657-0.354 3.182-0.707 5.304 0.354 2.829 0.354-1.768 1.061-1.06 0.707 1.061-1.414 15.912-0.707 7.779-0.707 7.425 0 15.558 1.414 17.679-1.768 11.315 7.072 36.773 8.84 42.077 0.354 0.354 0-1.768 0.707-0.353 0.707 4.597 3.889 7.779 4.95 12.729 1.061 1.414 5.304 9.193 6.011 10.962 1.414 2.829 2.122 2.475 3.536 5.303 4.243 8.133 10.961 15.912 17.326 23.337 20.508 24.044 51.978 43.845 86.984 50.918 35.006 7.425 71.779 2.122 100.419-11.669 1.768-1.061 1.414-1.414 3.536-2.122 9.901-3.182 21.923-13.436 28.641-17.326 3.182-3.536 11.669-9.547 12.73-13.082 6.011-4.95 12.022-13.083 15.204-18.387 1.768-2.829 3.182-2.829 3.889-4.597-0.354 0 5.657-7.425 7.426-11.668-0.707 0-1.768 2.122-1.768 0 12.729-24.398 19.801-57.282 15.911-79.912 0.707 27.934-6.365 59.05-19.801 78.851-6.011 12.729-18.387 26.519-29.701 36.42-1.768 1.768-3.536 3.889-5.658 5.304-6.718 5.657-14.144 10.254-21.922 14.497-18.387 10.254-38.895 19.094-62.94 19.447 41.37-3.536 78.497-24.398 99.006-49.856-15.558 15.204-22.276 21.215-39.602 30.055-1.414 2.475-13.083 7.425-20.862 9.547 4.597-2.122 14.144-5.657 17.326-8.486-25.812 12.376-54.453 19.448-81.326 15.558 10.254 0 24.751 0.354 38.541-2.121 2.122-0.707 3.182-1.414 5.658-1.768 26.873-6.011 52.685-19.094 71.072-37.481-10.608 9.547-26.519 20.862-36.774 24.398 9.547-5.304 26.873-15.558 32.53-23.337-11.315 11.315-32.53 22.63-45.966 27.58-2.122 0.354 1.414-1.414-2.122 0-4.243 1.061-2.475 1.061-3.536 1.768-16.265 4.597-35.006 8.486-50.563 7.072-2.829-0.354-3.889-1.061-6.365-1.061-2.829-0.354-5.304-0.354-8.486-0.354-12.376-1.414-25.812-6.365-35.713-10.607-5.304-2.475-10.608-4.243-15.912-7.426-4.243-2.475-7.779-5.304-11.314-8.132-13.436-9.901-24.751-19.801-35.36-33.945-19.094-26.519-28.994-59.757-27.58-92.641 1.414-32.884 14.497-65.061 35.359-88.752-1.061 1.061 1.414-2.475 3.536-4.596 0 0.707-0.354 1.768 2.122-0.707 2.122-2.475-0.707-0.707 0.353-2.122 21.923-24.044 60.111-43.492 99.36-44.199 1.414-1.061 3.889-2.475 6.718-1.768 0 0.354-1.768 0.354-1.768 0.354 3.889-0.354 7.425-0.354 9.193 0.353 0.354-0.354-1.414-0.707 0-0.707 2.475 0.707 3.182 0 4.597 0.707-1.061 0-2.122 0-2.829 0.354 8.84 0 14.497 2.122 23.337 2.829-4.597-1.061-5.657-1.061-9.193-2.122 3.889 0.707 5.657 1.414 7.425 1.061-0.707 0-0.354-1.061 0.354-0.707 7.072 1.768 7.779 2.475 15.204 4.95 0.707-0.707-3.182-1.061-4.243-2.122 7.072 2.475 13.436 4.243 17.68 7.072-1.414-1.061-5.657-2.475-8.84-3.889-0.354 0.354 1.061 0.707 1.414 1.414-3.536-1.768-8.486-3.536-13.436-4.243 4.243 1.061 7.072 2.475 8.84 3.182-3.889-0.707-8.84-3.182-14.498-4.243 9.193 2.829 26.519 9.193 37.127 14.851-3.889-2.475-8.486-4.243-10.961-5.657 2.122 0.354 4.597 1.768 4.597 1.06 2.475 1.061 5.657 3.536 7.425 3.89-3.182-2.122-9.547-5.304-11.668-6.365 26.519 12.022 50.21 32.177 65.414 57.989 1.414 2.475 3.536 8.133 5.304 8.84-0.354-1.768-1.768-2.829-3.182-5.657 0.707 0 0.707-1.061 0-2.122-1.414-1.768 0 1.414-1.415-0.354-6.365-11.669-14.144-21.923-26.165-33.237 6.718 6.365 1.768 1.768 0.353-0.354 9.193 8.133 19.801 21.923 24.398 28.995-0.707-1.061-1.061-1.768-0.707-1.768 8.486 14.497 13.79 27.58 19.094 46.32 0.354 0.354 0-1.414 0.707-0.353 3.536 14.851 4.597 27.227 4.243 38.541 2.829-19.094-3.536-48.796-14.851-72.133-1.414-2.829-1.414-0.707-2.829-3.889 0-1.061-1.061-3.182-1.768-4.597-14.144-23.337-31.47-39.956-51.978-53.038 1.414 0.707 4.243 2.829 4.244 2.475-38.188-25.105-82.387-28.641-118.807-20.862-2.475 1.061-3.536 2.122-6.365 3.536 5.304-1.768 8.486-2.122 13.437-3.183 1.061-1.061-4.597 0.354-2.122-0.707 0.354 0.354 4.95-0.707 6.011-0.353 0 0.354-1.414 0.707-1.768 1.06 11.669-2.475 23.691-2.829 33.945-2.121-6.011 0.354-16.972-0.707-20.508 1.061 3.536-0.354 8.486-0.707 11.668-0.354-4.243 0-12.022 0.354-15.558 0.707-0.354-0.354 5.657-1.061 1.768-1.06-1.768 0.354-4.597 0.354-5.657 1.414-30.409 2.829-60.111 18.74-80.973 37.481-4.243 3.536-9.193 7.425-12.375 11.314-7.779 8.84-12.729 17.68-18.387 25.459 3.536-7.425 11.315-18.74 20.508-28.287 9.193-9.547 19.094-17.68 24.398-21.923 0 1.414 8.486-5.304 11.669-7.425-2.122 1.768 1.414-0.707 2.121-0.354 11.315-6.718 20.508-9.193 30.763-13.083-2.475 0.707-4.597 1.414-4.951 1.061 2.475-0.707 3.889-1.414 3.536-1.768-9.901 2.829-25.459 9.547-37.834 16.972 22.276-15.204 50.564-24.398 78.497-24.751 27.934-0.707 55.16 6.365 76.729 17.68 14.497 6.365 28.287 18.033 39.249 29.348 3.182 2.829 0.707-0.707 5.304 4.243-1.414-0.707-2.475-1.414-0.707 0.707 2.829 3.182-0.707-2.475 3.889 3.182-0.354 0-1.768-1.768-1.768-1.061 12.376 10.961 21.923 30.762 27.58 43.846-1.414-5.304-4.95-12.729-7.779-18.033 8.486 15.558 11.315 24.751 14.851 38.541 1.414 1.061-0.707-4.95 0.707-2.121 0.354 2.122 0.707 8.84 2.122 9.9-1.061-6.718-2.829-14.851-4.243-16.265 1.061 0.707-1.768-8.133-3.536-10.254-0.707-5.657-5.657-15.558-9.901-22.984-15.204-29.702-42.431-54.099-72.839-67.536 0-0.707-1.768-1.414-2.476-2.121-30.055-12.729-66.122-16.265-100.773-8.133-35.006 8.486-67.889 28.641-91.227 57.636 1.061-3.536 9.901-10.254 10.255-13.083-10.254 10.961-21.215 25.459-28.641 41.016-7.779 15.558-12.022 31.47-13.79 43.138" fill="#ff908b" fill-rule="nonzero" stroke="none" stroke-width="1" stroke-linecap="butt" stroke-linejoin="miter" stroke-miterlimit="10" stroke-dasharray="" stroke-dashoffset="0" font-family="none" font-weight="none" font-size="none" text-anchor="none" style="mix-blend-mode: normal" data-fill-palette-color="tertiary"></path></g><g transform="matrix(1,0,0,1,48,168.03636363636363)"><svg viewBox="0 0 224 23.927272727272722" height="23.927272727272722" width="224"><g><svg viewBox="0 0 224 23.927272727272722" height="23.927272727272722" width="224"><g><svg viewBox="0 0 224 23.927272727272722" height="23.927272727272722" width="224"><g><svg viewBox="0 0 224 23.927272727272722" height="23.927272727272722" width="224"><g><svg viewBox="0 0 224 23.927272727272722" height="23.927272727272722" width="224"><g><svg viewBox="0 0 224 23.927272727272722" height="23.927272727272722" width="224"><g transform="matrix(1,0,0,1,0,0)"><svg width="224" viewBox="1.149999976158142 -37 351.9599914550781 37.599998474121094" height="23.927272727272722" data-palette-color="#ff908b"><path d="M30.9 0L26.5 0 23-10.3 8.9-10.3 5.4 0 1.15 0 13.35-34.9 18.7-34.9 30.9 0ZM21.95-14L16.05-31 15.8-31 9.9-14 21.95-14ZM44.1 0L40.55 0Q38.45 0 37.37-1.18 36.3-2.35 36.3-4.15L36.3-4.15 36.3-37 40.3-37 40.3-3.5 44.1-3.5 44.1 0ZM59.6 0.6L59.6 0.6Q56.95 0.6 54.82-0.35 52.7-1.3 51.17-3.08 49.65-4.85 48.82-7.33 48-9.8 48-12.9L48-12.9Q48-15.95 48.82-18.45 49.65-20.95 51.17-22.73 52.7-24.5 54.82-25.45 56.95-26.4 59.6-26.4L59.6-26.4Q62.2-26.4 64.25-25.45 66.3-24.5 67.75-22.83 69.2-21.15 69.97-18.85 70.75-16.55 70.75-13.8L70.75-13.8 70.75-11.9 52.2-11.9 52.2-10.7Q52.2-9.05 52.72-7.63 53.25-6.2 54.22-5.15 55.2-4.1 56.62-3.5 58.05-2.9 59.85-2.9L59.85-2.9Q62.3-2.9 64.12-4.05 65.95-5.2 66.95-7.35L66.95-7.35 69.8-5.3Q68.55-2.65 65.9-1.03 63.25 0.6 59.6 0.6ZM59.6-23.05L59.6-23.05Q57.95-23.05 56.6-22.48 55.25-21.9 54.27-20.85 53.3-19.8 52.75-18.38 52.2-16.95 52.2-15.25L52.2-15.25 52.2-14.9 66.45-14.9 66.45-15.45Q66.45-18.9 64.57-20.98 62.7-23.05 59.6-23.05ZM77.34 0L77.34-37 81.34-37 81.34-13.55 81.54-13.55 85.49-17.95 92.79-25.8 97.64-25.8 88.09-15.6 98.59 0 93.74 0 85.19-13.15 81.34-9.2 81.34 0 77.34 0ZM110.94 0.6L110.94 0.6Q107.34 0.6 104.92-0.78 102.49-2.15 100.74-4.45L100.74-4.45 103.59-6.75Q105.09-4.85 106.94-3.83 108.79-2.8 111.24-2.8L111.24-2.8Q113.79-2.8 115.22-3.9 116.64-5 116.64-7L116.64-7Q116.64-8.5 115.67-9.58 114.69-10.65 112.14-11.05L112.14-11.05 110.09-11.35Q108.29-11.6 106.79-12.13 105.29-12.65 104.17-13.53 103.04-14.4 102.42-15.7 101.79-17 101.79-18.8L101.79-18.8Q101.79-20.7 102.49-22.13 103.19-23.55 104.42-24.5 105.64-25.45 107.34-25.93 109.04-26.4 110.99-26.4L110.99-26.4Q114.14-26.4 116.27-25.3 118.39-24.2 119.99-22.25L119.99-22.25 117.34-19.85Q116.49-21.05 114.84-22.03 113.19-23 110.69-23L110.69-23Q108.19-23 106.92-21.93 105.64-20.85 105.64-19L105.64-19Q105.64-17.1 106.92-16.25 108.19-15.4 110.59-15L110.59-15 112.59-14.7Q116.89-14.05 118.69-12.23 120.49-10.4 120.49-7.45L120.49-7.45Q120.49-3.7 117.94-1.55 115.39 0.6 110.94 0.6ZM148.54 0L146.29 0Q144.04 0 143.06-1.2 142.09-2.4 141.84-4.2L141.84-4.2 141.59-4.2Q140.74-1.8 138.79-0.6 136.84 0.6 134.14 0.6L134.14 0.6Q130.04 0.6 127.76-1.5 125.49-3.6 125.49-7.2L125.49-7.2Q125.49-10.85 128.16-12.8 130.84-14.75 136.49-14.75L136.49-14.75 141.59-14.75 141.59-17.3Q141.59-20.05 140.09-21.5 138.59-22.95 135.49-22.95L135.49-22.95Q133.14-22.95 131.56-21.9 129.99-20.85 128.94-19.1L128.94-19.1 126.54-21.35Q127.59-23.45 129.89-24.93 132.19-26.4 135.69-26.4L135.69-26.4Q140.39-26.4 142.99-24.1 145.59-21.8 145.59-17.7L145.59-17.7 145.59-3.5 148.54-3.5 148.54 0ZM134.79-2.8L134.79-2.8Q136.29-2.8 137.54-3.15 138.79-3.5 139.69-4.15 140.59-4.8 141.09-5.65 141.59-6.5 141.59-7.5L141.59-7.5 141.59-11.75 136.29-11.75Q132.84-11.75 131.26-10.75 129.69-9.75 129.69-7.85L129.69-7.85 129.69-6.8Q129.69-4.9 131.06-3.85 132.44-2.8 134.79-2.8ZM158.24 0L154.24 0 154.24-25.8 158.24-25.8 158.24-21.6 158.44-21.6Q159.39-23.8 161.11-25.1 162.84-26.4 165.74-26.4L165.74-26.4Q169.74-26.4 172.06-23.83 174.39-21.25 174.39-16.55L174.39-16.55 174.39 0 170.39 0 170.39-15.85Q170.39-22.8 164.54-22.8L164.54-22.8Q163.34-22.8 162.21-22.5 161.09-22.2 160.19-21.6 159.29-21 158.76-20.08 158.24-19.15 158.24-17.9L158.24-17.9 158.24 0ZM199.13 0L199.13-4.2 198.93-4.2Q196.58 0.6 191.38 0.6L191.38 0.6Q188.98 0.6 187.03-0.35 185.08-1.3 183.71-3.05 182.33-4.8 181.61-7.3 180.88-9.8 180.88-12.9L180.88-12.9Q180.88-16 181.61-18.5 182.33-21 183.71-22.75 185.08-24.5 187.03-25.45 188.98-26.4 191.38-26.4L191.38-26.4Q194.08-26.4 196.01-25.23 197.93-24.05 198.93-21.6L198.93-21.6 199.13-21.6 199.13-37 203.13-37 203.13 0 199.13 0ZM192.48-3L192.48-3Q193.83-3 195.06-3.35 196.28-3.7 197.18-4.38 198.08-5.05 198.61-6.03 199.13-7 199.13-8.25L199.13-8.25 199.13-17.85Q199.13-18.9 198.61-19.83 198.08-20.75 197.18-21.4 196.28-22.05 195.06-22.43 193.83-22.8 192.48-22.8L192.48-22.8Q189.08-22.8 187.13-20.68 185.18-18.55 185.18-15.1L185.18-15.1 185.18-10.7Q185.18-7.25 187.13-5.13 189.08-3 192.48-3ZM215.63 0L211.63 0 211.63-25.8 215.63-25.8 215.63-21.05 215.88-21.05Q216.58-22.9 218.38-24.35 220.18-25.8 223.33-25.8L223.33-25.8 224.88-25.8 224.88-21.8 222.53-21.8Q219.28-21.8 217.46-20.58 215.63-19.35 215.63-17.5L215.63-17.5 215.63 0ZM231.98-31.85L231.98-31.85Q230.68-31.85 230.1-32.48 229.53-33.1 229.53-34.1L229.53-34.1 229.53-34.75Q229.53-35.75 230.1-36.38 230.68-37 231.98-37L231.98-37Q233.28-37 233.85-36.38 234.43-35.75 234.43-34.75L234.43-34.75 234.43-34.1Q234.43-33.1 233.85-32.48 233.28-31.85 231.98-31.85ZM229.98 0L229.98-25.8 233.98-25.8 233.98 0 229.98 0ZM258.87 0L254.67 0 254.67-34.9 268.57-34.9Q273.27-34.9 275.8-32.23 278.32-29.55 278.32-24.9L278.32-24.9Q278.32-20.25 275.8-17.57 273.27-14.9 268.57-14.9L268.57-14.9 258.87-14.9 258.87 0ZM258.87-31.2L258.87-18.6 268.57-18.6Q271.07-18.6 272.45-19.9 273.82-21.2 273.82-23.6L273.82-23.6 273.82-26.2Q273.82-28.6 272.45-29.9 271.07-31.2 268.57-31.2L268.57-31.2 258.87-31.2ZM288.07 0L284.07 0 284.07-25.8 288.07-25.8 288.07-21.05 288.32-21.05Q289.02-22.9 290.82-24.35 292.62-25.8 295.77-25.8L295.77-25.8 297.32-25.8 297.32-21.8 294.97-21.8Q291.72-21.8 289.9-20.58 288.07-19.35 288.07-17.5L288.07-17.5 288.07 0ZM304.42-31.85L304.42-31.85Q303.12-31.85 302.54-32.48 301.97-33.1 301.97-34.1L301.97-34.1 301.97-34.75Q301.97-35.75 302.54-36.38 303.12-37 304.42-37L304.42-37Q305.72-37 306.29-36.38 306.87-35.75 306.87-34.75L306.87-34.75 306.87-34.1Q306.87-33.1 306.29-32.48 305.72-31.85 304.42-31.85ZM302.42 0L302.42-25.8 306.42-25.8 306.42 0 302.42 0ZM316.32 0L316.32-22.3 312.12-22.3 312.12-25.8 316.32-25.8 316.32-31Q316.32-33.7 317.72-35.35 319.12-37 321.97-37L321.97-37 325.87-37 325.87-33.5 320.32-33.5 320.32-25.8 325.87-25.8 325.87-22.3 320.32-22.3 320.32 0 316.32 0ZM341.81 0L336.81 0Q334.71 0 333.64-1.18 332.56-2.35 332.56-4.25L332.56-4.25 332.56-22.3 328.31-22.3 328.31-25.8 330.71-25.8Q332.01-25.8 332.49-26.33 332.96-26.85 332.96-28.15L332.96-28.15 332.96-32.95 336.56-32.95 336.56-25.8 342.21-25.8 342.21-22.3 336.56-22.3 336.56-3.5 341.81-3.5 341.81 0ZM350.66-31.85L350.66-31.85Q349.36-31.85 348.79-32.48 348.21-33.1 348.21-34.1L348.21-34.1 348.21-34.75Q348.21-35.75 348.79-36.38 349.36-37 350.66-37L350.66-37Q351.96-37 352.54-36.38 353.11-35.75 353.11-34.75L353.11-34.75 353.11-34.1Q353.11-33.1 352.54-32.48 351.96-31.85 350.66-31.85ZM348.66 0L348.66-25.8 352.66-25.8 352.66 0 348.66 0Z" opacity="1" transform="matrix(1,0,0,1,0,0)" fill="#000000" class="undefined-text-0" data-fill-palette-color="primary" id="text-0"></path></svg></g></svg></g></svg></g></svg></g></svg></g></svg></g></svg></g></svg></g><defs></defs></svg><rect width="320" height="360" fill="none" stroke="none" visibility="hidden"></rect></g></svg></g></svg>